<svg width="226" height="145" viewBox="0 0 226 145" fill="none" xmlns="http://www.w3.org/2000/svg">
<path d="M225.991 0.443548L207.485 38.5352H106.181C106.181 38.5352 95.4626 35.1136 94.0071 51.7189H171.32C173.749 51.7189 176.149 52.1539 178.404 53.0431C185.441 55.7881 197.325 63.5785 186.867 83.354C178.144 99.8434 166.568 122.045 166.568 122.045C166.568 122.045 150.009 145 124.678 145H0L22.4005 103.98H131.984C131.984 103.98 145.131 99.0991 139.772 90.3035H71.5873C71.5873 90.3035 39.9335 88.3511 45.283 64.9026L66.2281 22.4132C66.2281 22.4132 77.4284 1.41009 105.68 0.433873C133.931 -0.542341 225.981 0.433873 225.981 0.433873L225.991 0.443548Z" fill="url(#paint0_linear_46695_18237)"/>
<defs>
<linearGradient id="paint0_linear_46695_18237" x1="231.081" y1="74.1113" x2="5.0899" y2="74.1113" gradientUnits="userSpaceOnUse">
<stop stop-color="#8D8D8D" stop-opacity="0.875781"/>
<stop offset="0.533654" stop-color="#698EA3" stop-opacity="0.701927"/>
<stop offset="1" stop-color="white" stop-opacity="0.55"/>
</linearGradient>
</defs>
</svg>
