<svg width="219" height="143" viewBox="0 0 219 143" fill="none" xmlns="http://www.w3.org/2000/svg">
<path d="M200.722 0.0472243H98.4545C61.6747 3.02824 47.1187 32.7322 47.1187 32.7322L0.631672 119.471C-4.21714 143.387 20.4406 142.982 20.4406 142.982H104.111L195.411 55.4806L218.501 18.9463C222.542 -1.72788 200.712 0.0375676 200.712 0.0375676L200.722 0.0472243ZM155.438 47.3286L133.098 95.5651C133.098 95.5651 130.905 104.074 119.543 104.479H62.7715C62.7715 104.479 51.0535 106.1 54.3438 95.5651L78.482 47.3768C78.482 47.3768 82.4361 39.6301 92.076 39.6301H149.954C149.954 39.6301 159.113 38.8197 155.447 47.3286H155.438Z" fill="url(#paint0_linear_46695_18238)"/>
<defs>
<linearGradient id="paint0_linear_46695_18238" x1="223.932" y1="73.0796" x2="4.93244" y2="73.0796" gradientUnits="userSpaceOnUse">
<stop stop-color="#8D8D8D" stop-opacity="0.875781"/>
<stop offset="0.533654" stop-color="#698EA3" stop-opacity="0.701927"/>
<stop offset="1" stop-color="white" stop-opacity="0.55"/>
</linearGradient>
</defs>
</svg>
